<svg fill="#b3857c" enable-background="new 0 0 64 64" height="512" viewBox="0 0 64 64" width="512" xmlns="http://www.w3.org/2000/svg"><path d="m61 2h-58c-.552 0-1 .448-1 1v58c0 .552.448 1 1 1h50c.265 0 .52-.105.707-.293l8-8c.188-.187.293-.442.293-.707v-50c0-.552-.448-1-1-1zm-49.246 58c-2.07 0-3.754-1.684-3.754-3.754v-.246h10.763c.071 1.08-.308 2.131-1.077 2.9-.709.709-1.652 1.1-2.655 1.1zm2.246-35h-4v-12.382l4-2zm-5 2h6v2h-6zm-1 4h8 .102l2.464 23h-10.566zm18 29v-18c0-1.654 1.346-3 3-3h8c1.654 0 3 1.346 3 3v18zm8-28h-2v-3.901l.82-4.099h.36l.82 4.099zm-3 2h4 1v3h-6v-3zm21.586 26h-10.586v-18c0-2.414-1.721-4.434-4-4.899v-4.101c0-.552-.448-1-1-1h-1v-4c0-.066-.006-.131-.02-.196l-1-5c-.093-.468-.503-.804-.98-.804h-2c-.477 0-.887.336-.98.804l-1 5c-.014.065-.02.13-.02.196v4h-1c-.552 0-1 .448-1 1v4.101c-2.279.465-4 2.484-4 4.899v18h-4.619c1.041-1.203 1.542-2.769 1.371-4.367l-2.758-25.739c-.054-.509-.483-.894-.994-.894v-3c0-.552-.448-1-1-1v-16c0-.347-.18-.668-.474-.851-.295-.182-.663-.198-.973-.044l-6 3c-.339.17-.553.516-.553.895v13c-.552 0-1 .448-1 1v3c-.552 0-1 .448-1 1v26.246c0 1.435.531 2.745 1.403 3.754h-3.403v-56h56v48h-7c-.552 0-1 .448-1 1v4h2v-3h4.586z"/><path d="m15 41h-1v-8h-2v8h-1c-.552 0-1 .448-1 1v5c0 .552.448 1 1 1h1v4h2v-4h1c.552 0 1-.448 1-1v-5c0-.552-.448-1-1-1zm-1 5h-2v-3h2z"/><path d="m58 43v-8c0-2.757-2.243-5-5-5s-5 2.243-5 5v8c0 1.654 1.346 3 3 3s3-1.346 3-3v-8h-2v8c0 .551-.449 1-1 1s-1-.449-1-1v-8c0-1.654 1.346-3 3-3s3 1.346 3 3v8c0 2.757-2.243 5-5 5s-5-2.243-5-5v-8h-2v8c0 3.86 3.14 7 7 7s7-3.14 7-7z"/><path d="m51 28c3.86 0 7-2.691 7-6 0-2.086-1.249-3.924-3.139-5 1.89-1.076 3.139-2.914 3.139-5 0-3.309-3.14-6-7-6-3.295 0-6.059 1.964-6.799 4.597l-5.463 2.425-18.843 1.983c-.509.054-.895.483-.895.995 0 .782.29 1.545.835 2.169.542.585 1.27.953 2.05 1.035l16.853 1.773 5.463 2.425c.74 2.634 3.504 4.598 6.799 4.598zm-6.506-12.139-3.238-1.768 2.821-1.252c.157.956.574 1.839 1.194 2.596zm2.383.977c.087.055.172.111.262.162-.09.051-.175.107-.262.162l-.296-.162zm-1.606 1.725c-.62.756-1.036 1.64-1.194 2.596l-2.821-1.252 3.238-1.768zm10.729 3.437c0 2.206-2.243 4-5 4s-5-1.794-5-4 2.243-4 5-4 5 1.794 5 4zm-5-14c2.757 0 5 1.794 5 4s-2.243 4-5 4-5-1.794-5-4 2.243-4 5-4zm-29.647 8.863 17.442-1.836 3.613 1.973-3.613 1.973-16.7-1.757c-.355-.038-.604-.215-.742-.353z"/><path d="m37 16h2v2h-2z"/></svg>