<?xml version="1.0" encoding="UTF-8"?>
<svg width="512" height="512" fill="#b3857c" viewBox="0 0 64 64" xmlns="http://www.w3.org/2000/svg">
<path d="m54 24.586v-4.586h1a1 1 0 0 0 1-1v-4a1 1 0 0 0-1-1h-12.586l-7.714-7.715a2.951 2.951 0 0 0 0.3-1.285 3 3 0 1 0-5.946 0.532l-8.468 8.468h-11.586a1 1 0 0 0-1 1v4a1 1 0 0 0 1 1h1v4.586l-6.707 6.707a1 1 0 0 0 0 1.414l6.707 6.707v4.586h-2a1 1 0 0 0-1 1v4a1 1 0 0 0 1 1h1v12h2v-12h2v12h2v-12h2v12h2v-12h2v12h2v-12h2v12h2v-12h2v12h2v-12h2v12h2v-12h2v12h2v-12h2v12h2v-12h2v12h2v-12h2v12h2v-12h2v12h2v-12h1a1 1 0 0 0 1-1v-4a1 1 0 0 0-1-1h-2v-4.586l6.707-6.707a1 1 0 0 0 0-1.414zm-2 0-5 5v-3.586h1a1 1 0 0 0 1-1v-5h3zm-5 15.414v4h-2v-4zm-3-2a1 1 0 0 0-1 1v5h-3v-4.586l5-5v3.586zm-18 6v-4.586l5-5v3.586h-1a1 1 0 0 0-1 1v5zm-7-4v4h-2v-4zm1-2h-1v-3.586l5 5v4.586h-3v-5a1 1 0 0 0-1-1zm-3-14v-4h2v4zm3 2a1 1 0 0 0 1-1v-5h3v4.586l-5 5v-3.586zm18-6v4.586l-5 5v-3.586h1a1 1 0 0 0 1-1v-5zm7 4v-4h2v4zm-1 2h1v3.586l-5-5v-4.586h3v5a1 1 0 0 0 1 1zm-5 11.586-5.586-5.586 5.586-5.586 5.586 5.586zm-6-13.586h-2v-4h2zm-3 2h1v3.586l-5-5v-4.586h3v5a1 1 0 0 0 1 1zm-5 11.586-5.586-5.586 5.586-5.586 5.586 5.586zm6 2.414h2v4h-2zm3-2h-1v-3.586l5 5v4.586h-3v-5a1 1 0 0 0-1-1zm-2-34a1 1 0 1 1-1 1 1 1 0 0 1 1-1zm-1.894 3.308a2.921 2.921 0 0 0 3.179 0.391l6.3 6.3h-16.171zm-20.106 8.692h44v2h-44zm5 4v5a1 1 0 0 0 1 1h1v3.586l-5-5v-4.586zm-4 6.414 5.586 5.586-5.586 5.586-5.586-5.586zm1 13 5-5v3.586h-1a1 1 0 0 0-1 1v5h-3zm43 8.586h-46v-2h46zm-6-4v-5a1 1 0 0 0-1-1h-1v-3.586l5 5v4.586zm4-6.414-5.586-5.586 5.586-5.586 5.586 5.586z"/>
<path d="m38 29h2v2h-2z"/>
<path d="m36 31h2v2h-2z"/>
<path d="m38 33h2v2h-2z"/>
<path d="m40 31h2v2h-2z"/>
<path d="m24 29h2v2h-2z"/>
<path d="m22 31h2v2h-2z"/>
<path d="m24 33h2v2h-2z"/>
<path d="m26 31h2v2h-2z"/>
<path d="m10 29h2v2h-2z"/>
<path d="m8 31h2v2h-2z"/>
<path d="m10 33h2v2h-2z"/>
<path d="m12 31h2v2h-2z"/>
<path d="m52 29h2v2h-2z"/>
<path d="m50 31h2v2h-2z"/>
<path d="m52 33h2v2h-2z"/>
<path d="m54 31h2v2h-2z"/>
</svg>
