<svg id="Layer_1" fill="white" enable-background="new 0 0 512 512" height="512" viewBox="0 0 512 512" width="512" xmlns="http://www.w3.org/2000/svg"><g><g><path d="m512 398c0-12.407-10.093-22.5-22.5-22.5h-21.5v-111.5h18.526c8.532 0 15.474-6.942 15.474-15.474v-71.051c0-8.533-6.942-15.475-15.474-15.475h-18.526v-21c0-43.836-35.664-79.5-79.5-79.5h-36.445c-4.142 0-7.5 3.358-7.5 7.5s3.358 7.5 7.5 7.5h36.445c35.565 0 64.5 28.935 64.5 64.5v234.5h-139v-132.5c0-15.164-12.336-27.5-27.5-27.5h-80.221c-12.154 0-22.718 7.806-26.288 19.425l-15.281 49.745c-1.622 5.281-6.424 8.83-11.949 8.83h-81.261c-6.893 0-12.5-5.607-12.5-12.5v-22.5c0-4.142-3.358-7.5-7.5-7.5s-7.5 3.358-7.5 7.5v22.5c0 15.164 12.336 27.5 27.5 27.5h13.897v35c0 4.142 3.358 7.5 7.5 7.5s7.5-3.358 7.5-7.5v-35h52.364c12.154 0 22.719-7.807 26.288-19.425l15.281-49.745c1.623-5.282 6.424-8.83 11.949-8.83h80.221c6.893 0 12.5 5.607 12.5 12.5v132.5h-276.5c-12.407 0-22.5 10.093-22.5 22.5 0 11.041 7.996 20.243 18.5 22.137v22.863c0 4.142 3.358 7.5 7.5 7.5h294.055c4.142 0 7.5-3.358 7.5-7.5s-3.358-7.5-7.5-7.5h-286.555v-15h445v15h-126.259c-4.142 0-7.5 3.358-7.5 7.5s3.358 7.5 7.5 7.5h133.759c4.142 0 7.5-3.358 7.5-7.5v-22.863c10.504-1.894 18.5-11.096 18.5-22.137zm-25.474-221c.261 0 .474.213.474.475v71.051c0 .261-.213.474-.474.474h-18.526v-72zm2.974 228.5h-467c-4.136 0-7.5-3.364-7.5-7.5s3.364-7.5 7.5-7.5h467c4.136 0 7.5 3.364 7.5 7.5s-3.364 7.5-7.5 7.5z"/><path d="m51.5 233.5c4.142 0 7.5-3.358 7.5-7.5v-109c0-22.332 18.168-40.5 40.5-40.5h5v135.5c0 12.407 10.093 22.5 22.5 22.5s22.5-10.093 22.5-22.5v-135.5h25.5v15.5c0 8.547 6.953 15.5 15.5 15.5h104c8.547 0 15.5-6.953 15.5-15.5v-15.5h9.869c4.142 0 7.5-3.358 7.5-7.5s-3.358-7.5-7.5-7.5h-220.369c-30.603 0-55.5 24.897-55.5 55.5v109c0 4.142 3.358 7.5 7.5 7.5zm243.5-141.5c0 .276-.224.5-.5.5h-104c-.276 0-.5-.224-.5-.5v-15h105zm-160.5-15.5v135.5c0 4.136-3.364 7.5-7.5 7.5s-7.5-3.364-7.5-7.5v-135.5z"/><path d="m424 159.5c0-23.435-19.065-42.5-42.5-42.5s-42.5 19.065-42.5 42.5 19.065 42.5 42.5 42.5 42.5-19.065 42.5-42.5zm-42.5 27.5c-15.164 0-27.5-12.336-27.5-27.5s12.336-27.5 27.5-27.5 27.5 12.336 27.5 27.5-12.336 27.5-27.5 27.5z"/><path d="m356 266.5c0 14.061 11.439 25.5 25.5 25.5s25.5-11.439 25.5-25.5-11.439-25.5-25.5-25.5-25.5 11.439-25.5 25.5zm36 0c0 5.79-4.71 10.5-10.5 10.5s-10.5-4.71-10.5-10.5 4.71-10.5 10.5-10.5 10.5 4.71 10.5 10.5z"/></g></g></svg>