<?xml version="1.0" encoding="UTF-8"?>
<svg width="100px" height="100px" viewBox="0 0 100 100" xmlns="http://www.w3.org/2000/svg">
<circle cx="13.063" cy="28.958" r="2" fill="#ee3e54"/>
<circle cx="77.063" cy="12.958" r="1" fill="#f1bc19"/>
<circle cx="50.063" cy="49.958" r="37" fill="#fce0a2"/>
<circle cx="83.063" cy="14.958" r="4" fill="#f1bc19"/>
<circle cx="87.063" cy="23.958" r="2" fill="#ee3e54"/>
<circle cx="81.063" cy="75.958" r="2" fill="#fbcd59"/>
<circle cx="20.063" cy="72.958" r="4" fill="#fbcd59"/>
<circle cx="25.063" cy="86.958" r="2" fill="#ee3e54"/>
<circle cx="27.563" cy="31.458" r="2.5" fill="#fff"/>
<circle cx="28.063" cy="74.958" r="1" fill="#f1bc19"/>
<circle cx="80.063" cy="33.958" r="1" fill="#fff"/>
<polygon points="32.333 62.146 25.996 62.146 20.129 42.698 17.667 42.698 17.667 38.75 23.026 38.75 28.893 58.197 32.333 58.197" fill="#a1a1ca"/>
<path d="m32.333 62.846h-6.337c-0.309 0-0.581-0.202-0.67-0.498l-5.716-18.949h-1.943c-0.387 0-0.7-0.313-0.7-0.7v-3.949c0-0.387 0.313-0.7 0.7-0.7h5.36c0.309 0 0.581 0.202 0.67 0.498l5.716 18.949h2.92c0.387 0 0.7 0.313 0.7 0.7v3.948c1e-3 0.387-0.313 0.701-0.7 0.701zm-5.817-1.401h5.117v-2.548h-2.74c-0.309 0-0.581-0.202-0.67-0.498l-5.717-18.949h-4.14v2.548h1.763c0.309 0 0.581 0.202 0.67 0.498l5.717 18.949z" fill="#472b29"/>
<path d="m40.637 65.236c-3.715-3.995-5.846-9.687-5.846-15.614 0-5.704 1.897-11.049 5.343-15.052l3.031 2.609c-2.821 3.277-4.374 7.696-4.374 12.442 0 4.928 1.741 9.627 4.775 12.892l-2.929 2.723z" fill="#a1a1ca"/>
<path d="m40.637 65.937c-0.188 0-0.375-0.075-0.513-0.224-3.834-4.123-6.033-9.988-6.033-16.091 0-5.871 1.958-11.379 5.512-15.509 0.121-0.141 0.293-0.228 0.479-0.241 0.184-0.01 0.368 0.046 0.509 0.168l3.031 2.609c0.293 0.252 0.326 0.694 0.074 0.987-2.711 3.149-4.205 7.406-4.205 11.985 0 4.753 1.672 9.278 4.588 12.415 0.126 0.136 0.194 0.316 0.187 0.502s-0.087 0.361-0.223 0.487l-2.93 2.723c-0.134 0.126-0.305 0.189-0.476 0.189zm-0.419-30.372c-3.053 3.812-4.726 8.773-4.726 14.057 0 5.499 1.884 10.783 5.191 14.616l1.905-1.771c-2.865-3.36-4.497-7.999-4.497-12.845 0-4.659 1.451-9.019 4.098-12.359l-1.971-1.698z" fill="#472b29"/>
<polygon points="74.042 62.146 67.75 62.146 67.75 58.197 71.165 58.197 76.99 38.75 82.311 38.75 82.311 42.698 79.866 42.698" fill="#a1a1ca"/>
<path d="m74.042 62.846h-6.292c-0.387 0-0.7-0.313-0.7-0.7v-3.948c0-0.387 0.313-0.7 0.7-0.7h2.895l5.675-18.948c0.088-0.296 0.361-0.499 0.67-0.499h5.321c0.387 0 0.7 0.313 0.7 0.7v3.948c0 0.387-0.313 0.7-0.7 0.7h-1.924l-5.675 18.948c-0.088 0.296-0.361 0.499-0.67 0.499zm-5.592-1.401h5.07l5.675-18.948c0.088-0.296 0.361-0.499 0.67-0.499h1.745v-2.548h-4.1l-5.675 18.948c-0.088 0.296-0.361 0.499-0.67 0.499h-2.715v2.548z" fill="#472b29"/>
<path d="m60.465 65.361-2.93-2.723c3.035-3.265 4.775-7.964 4.775-12.892 0-4.746-1.553-9.165-4.374-12.442l3.031-2.609c3.445 4.003 5.343 9.348 5.343 15.052 1e-3 5.928-2.13 11.619-5.845 15.614z" fill="#a1a1ca"/>
<path d="m60.465 66.062c-0.171 0-0.342-0.063-0.477-0.188l-2.93-2.723c-0.136-0.126-0.216-0.302-0.223-0.487s0.061-0.366 0.187-0.502c2.916-3.137 4.588-7.662 4.588-12.415 0-4.579-1.493-8.836-4.205-11.985-0.252-0.293-0.219-0.735 0.074-0.987l3.031-2.609c0.141-0.121 0.324-0.18 0.509-0.168 0.185 0.014 0.357 0.101 0.479 0.241 3.554 4.13 5.512 9.638 5.512 15.509 0 6.103-2.199 11.968-6.033 16.091-0.138 0.147-0.325 0.223-0.512 0.223zm-1.951-3.47 1.905 1.771c3.307-3.833 5.191-9.117 5.191-14.616 0-5.283-1.673-10.245-4.726-14.057l-1.971 1.697c2.647 3.341 4.098 7.7 4.098 12.359 0 4.847-1.632 9.485-4.497 12.846z" fill="#472b29"/>
<path d="M48.412,59.442l-0.824-2.885L48,58l-0.418-1.44c0.253-0.074,6.209-1.907,7.963-8.924l2.91,0.729 C56.27,57.104,48.732,59.351,48.412,59.442z" fill="#472b29"/>
<rect transform="rotate(-24.776 45.271 46.253)" x="43.276" y="44.257" width="4" height="4" fill="#472b29"/>
<rect transform="rotate(-24.776 52.718 42.739)" x="50.724" y="40.743" width="4" height="4" fill="#472b29"/>
<path d="m33.5 67h-10c-0.276 0-0.5-0.224-0.5-0.5s0.224-0.5 0.5-0.5h10c0.276 0 0.5 0.224 0.5 0.5s-0.224 0.5-0.5 0.5z" fill="#472b29"/>
<path d="m22.293 63.18c-0.212 0-0.41-0.136-0.477-0.35l-2-6.334c-0.083-0.263 0.063-0.544 0.326-0.627 0.263-0.079 0.544 0.063 0.627 0.326l2 6.334c0.083 0.263-0.063 0.544-0.326 0.627-0.049 0.016-0.1 0.024-0.15 0.024z" fill="#472b29"/>
<path d="m19.38 53.954c-0.212 0-0.41-0.136-0.477-0.35l-1.88-5.954c-0.083-0.263 0.063-0.544 0.326-0.627 0.262-0.081 0.544 0.063 0.627 0.326l1.88 5.954c0.083 0.263-0.063 0.544-0.326 0.627-0.049 0.016-0.1 0.024-0.15 0.024z" fill="#472b29"/>
<path d="M76.5,67h-10c-0.276,0-0.5-0.224-0.5-0.5s0.224-0.5,0.5-0.5h9.633l0.984-3.116 c0.083-0.263,0.364-0.409,0.627-0.326c0.264,0.083,0.41,0.364,0.326,0.627l-1.094,3.466C76.911,66.858,76.718,67,76.5,67z" fill="#472b29"/>
<path d="m78.635 60.24c-0.05 0-0.101-8e-3 -0.15-0.023-0.264-0.083-0.41-0.364-0.326-0.627l3.865-12.24c0.083-0.264 0.366-0.407 0.627-0.326 0.264 0.083 0.41 0.364 0.326 0.627l-3.865 12.24c-0.068 0.213-0.265 0.349-0.477 0.349z" fill="#472b29"/>
<path d="m32.282 39.851c-0.061 0-0.123-0.011-0.183-0.034-0.257-0.102-0.384-0.392-0.283-0.648 1.054-2.687 2.675-5.213 4.817-7.509 0.189-0.201 0.504-0.211 0.707-0.024 0.202 0.188 0.213 0.505 0.024 0.706-2.057 2.204-3.61 4.624-4.618 7.192-0.076 0.196-0.264 0.317-0.464 0.317z" fill="#472b29"/>
<path d="m30.999 47.5c-0.247 0-0.461-0.183-0.495-0.434-0.012-0.088-0.278-2.185 0.479-5.276 0.066-0.27 0.337-0.435 0.605-0.366 0.268 0.065 0.432 0.336 0.367 0.604-0.709 2.894-0.462 4.887-0.459 4.906 0.036 0.273-0.157 0.524-0.43 0.561-0.023 3e-3 -0.045 5e-3 -0.067 5e-3z" fill="#472b29"/>
<path d="m66.551 35.788c-0.162 0-0.321-0.079-0.417-0.225-0.255-0.386-0.529-0.776-0.824-1.168-0.525-0.7-1.105-1.391-1.725-2.055-0.188-0.201-0.177-0.518 0.024-0.706 0.203-0.188 0.519-0.177 0.707 0.024 0.643 0.689 1.247 1.407 1.793 2.136 0.307 0.408 0.592 0.814 0.858 1.218 0.152 0.23 0.089 0.54-0.141 0.692-0.084 0.058-0.18 0.084-0.275 0.084z" fill="#472b29"/>
<path d="m69.952 47.5c-0.022 0-0.044-2e-3 -0.066-5e-3 -0.273-0.036-0.466-0.287-0.43-0.561 5e-3 -0.039 0.487-4.015-1.938-8.957-0.122-0.248-0.02-0.548 0.229-0.67s0.547-0.019 0.669 0.229c2.568 5.232 2.055 9.357 2.032 9.53-0.035 0.251-0.25 0.434-0.496 0.434z" fill="#472b29"/>
</svg>
