<svg fill="white" enable-background="new 0 0 511.978 511.978" height="512" viewBox="0 0 511.978 511.978" width="512" xmlns="http://www.w3.org/2000/svg"><g><path d="m104.232 265.707 62.899 53.052c3.169 2.671 7.9 2.269 10.569-.897 2.67-3.166 2.269-7.898-.897-10.568l-62.899-53.052c-11.685-9.855-28.646-9.136-39.456 1.672-11.379 11.38-11.379 29.896 0 41.275l39.204 39.204c1.465 1.464 3.385 2.197 5.304 2.197s3.839-.732 5.304-2.197c2.929-2.929 2.929-7.678 0-10.606l-39.204-39.204c-5.531-5.531-5.531-14.531 0-20.063 5.252-5.254 13.498-5.602 19.176-.813z"/><path d="m219.457 428.653v-18.714c5.935-8.262 9.46-17.951 10.219-28.121 1.315-17.632-5.968-34.964-19.482-46.362l-8.893-7.5c-3.165-2.67-7.898-2.268-10.568.898-2.67 3.167-2.269 7.898.898 10.569l8.893 7.5c9.847 8.304 15.152 20.932 14.193 33.78-.581 7.791-3.391 15.193-8.122 21.404-1.379 1.807-2.138 4.054-2.138 6.327v15.546c-.677-.042-1.357-.069-2.044-.069h-101.83c-.4 0-.797.016-1.194.03v-31.195c0-1.908-.728-3.745-2.033-5.135l-51.245-54.55c-9.83-10.464-15.244-24.134-15.244-38.491v-130.233c0-9.271 7.543-16.814 16.814-16.814s16.814 7.542 16.814 16.814v71.522c0 4.142 3.357 7.5 7.5 7.5s7.5-3.358 7.5-7.5v-71.522c0-17.542-14.271-31.814-31.814-31.814s-31.814 14.271-31.814 31.814v130.229c0 18.188 6.858 35.505 19.312 48.762l49.211 52.385v32.45c-10.053 5.676-16.86 16.455-16.86 28.8v47.514c0 4.142 3.357 7.5 7.5 7.5s7.5-3.358 7.5-7.5v-29.035h137.94v29.035c0 4.142 3.357 7.5 7.5 7.5s7.5-3.358 7.5-7.5v-47.514c-.001-11.995-6.426-22.517-16.013-28.31zm-136.929 31.79v-3.479c0-9.956 8.1-18.055 18.055-18.055h101.83c9.956 0 18.056 8.1 18.056 18.055v3.479z"/><path d="m464.298 132.523c-17.543 0-31.814 14.272-31.814 31.814v71.522c0 4.142 3.357 7.5 7.5 7.5s7.5-3.358 7.5-7.5v-71.522c0-9.271 7.543-16.814 16.814-16.814s16.814 7.543 16.814 16.814v28.867c0 4.142 3.357 7.5 7.5 7.5s7.5-3.358 7.5-7.5v-28.867c0-17.542-14.271-31.814-31.814-31.814z"/><path d="m488.612 217.667c-4.143 0-7.5 3.358-7.5 7.5v69.4c0 14.357-5.414 28.027-15.244 38.491l-51.244 54.55c-1.307 1.391-2.034 3.227-2.034 5.135v31.195c-.397-.014-.794-.03-1.194-.03h-101.83c-.687 0-1.367.028-2.044.069v-15.546c0-2.272-.759-4.52-2.135-6.322-4.734-6.215-7.545-13.618-8.126-21.409-.959-12.846 4.348-25.474 14.195-33.78l96.29-81.215c5.678-4.79 13.923-4.44 19.177.813 5.531 5.531 5.531 14.531 0 20.063l-39.203 39.204c-2.929 2.929-2.929 7.678 0 10.606 2.93 2.929 7.678 2.929 10.607 0l39.203-39.204c11.379-11.379 11.379-29.896 0-41.275-10.81-10.809-27.77-11.528-39.456-1.672l-96.29 81.215c-13.515 11.4-20.798 28.731-19.482 46.362.76 10.168 4.285 19.856 10.22 28.12v18.714c-9.587 5.793-16.012 16.315-16.012 28.311v47.514c0 4.142 3.357 7.5 7.5 7.5s7.5-3.358 7.5-7.5v-29.035h137.94v29.035c0 4.142 3.357 7.5 7.5 7.5s7.5-3.358 7.5-7.5v-47.514c0-12.345-6.807-23.124-16.86-28.8v-32.45l49.212-52.386c12.452-13.256 19.311-30.573 19.311-48.761v-69.4c-.001-4.141-3.358-7.498-7.501-7.498zm-59.162 242.776h-137.94v-3.479c0-9.956 8.1-18.055 18.056-18.055h101.83c9.955 0 18.055 8.1 18.055 18.055v3.479z"/><path d="m344.903 266.865c3.811 0 7.454-1.816 9.748-4.86 3.936-5.226 27.38-36.595 33.12-44.305 3.043-4.086 3.213-9.699.425-13.964l-37.553-57.454 7.679-5.254c3.256-2.227 4.89-6.03 4.263-9.925-.626-3.895-3.37-6.994-7.159-8.087l-24.635-7.11-47.834-73.186c-.291-.445-.634-.843-1.003-1.209-2.299-2.526-5.592-4.019-9.018-4.019h-33.521c-4.135 0-7.955 2.066-10.217 5.528l-9.848 15.065c-2.267 3.467-1.293 8.115 2.174 10.381 3.467 2.267 8.115 1.293 10.381-2.174l9.021-13.8h23.068l-47.624 72.633c-2.263 3.45-1.313 8.08 2.125 10.362l4.741 3.146-34.363 10.447-3.726-35.723 4.863 3.228c1.666 1.105 3.703 1.501 5.659 1.097 1.957-.403 3.673-1.57 4.767-3.243l13.971-21.375c2.266-3.467 1.292-8.115-2.175-10.381-3.468-2.268-8.115-1.293-10.382 2.174l-9.838 15.053-7.26-4.817c-3.285-2.18-7.425-2.267-10.799-.224s-5.216 5.749-4.808 9.672l2.73 26.176-47.726 73.02c-2.787 4.266-2.616 9.877.426 13.962 2.701 3.628 26.116 35.004 33.12 44.303 2.291 3.044 5.936 4.861 9.749 4.861h57.592v8.684c0 3.944 2.217 7.44 5.785 9.122 1.391.656 2.863.978 4.323.978 2.285 0 4.537-.789 6.394-2.32l19.957-16.463h83.408zm-1.393-15h-63.833l2.207-1.82c2.331-1.922 3.667-4.758 3.667-7.779s-1.336-5.856-3.667-7.779l-2.206-1.82h68.663l4.458 6.817c-3.276 4.376-6.435 8.587-9.289 12.381zm-9.44-103.522 40.503 61.967c-3.71 4.981-7.914 10.622-12.216 16.385l-43.972-67.239c-1.104-1.688-2.841-2.859-4.818-3.251-.484-.096-.973-.144-1.459-.144-1.5 0-2.979.45-4.235 1.31l-4.352 2.978 3.218-35.771 34.508 9.959-5.134 3.513c-3.367 2.304-4.275 6.877-2.043 10.293zm-28.894-39.829c-2.902-.838-5.998-.34-8.492 1.365-2.493 1.706-4.079 4.411-4.35 7.42l-.184 2.039-26.989-41.27 11.506-17.548 32.036 49.012zm-64.959 23.386-7.214-4.788 23.185-35.359 33.795 51.677-2.335 25.958c-.354 3.929 1.54 7.609 4.942 9.605 3.404 1.996 7.54 1.851 10.796-.377l6.638-4.542 28.507 43.591h-77.036l-19.956-16.463c-3.044-2.51-7.15-3.025-10.718-1.343s-5.785 5.177-5.785 9.122v8.684h-51.407l39.532-60.293 24.413-7.422c3.774-1.148 6.474-4.286 7.045-8.188s-1.115-7.681-4.402-9.862zm-102.444 78.41 36.568-55.947.229 2.197c.313 3.005 1.936 5.688 4.453 7.358 1.675 1.112 3.609 1.686 5.568 1.686.984 0 1.976-.145 2.942-.439l3.223-.98-35.067 53.481h-12.436c-1.907-2.559-3.746-5.029-5.48-7.356zm102.263 54.812v-5.757c0-4.142-3.357-7.5-7.5-7.5h-63.698c-4.314-5.733-9.324-12.422-14.389-19.198h78.087c4.143 0 7.5-3.358 7.5-7.5v-5.757l27.706 22.856z"/><path d="m260.459 359.158c-.057 0-.113 0-.171.002-2.859.063-5.738.063-8.598 0-4.169-.104-7.574 3.19-7.666 7.331-.093 4.141 3.189 7.573 7.33 7.666 1.541.035 3.086.059 4.635.059s3.094-.024 4.635-.059c4.141-.092 7.423-3.524 7.33-7.666-.091-4.085-3.431-7.333-7.495-7.333z"/><path d="m367.675 13.578c34.438 24.898 59.881 60.958 71.645 101.537.951 3.281 3.946 5.414 7.199 5.414.691 0 1.395-.096 2.092-.298 3.979-1.153 6.269-5.313 5.115-9.292-12.69-43.775-40.129-82.669-77.262-109.516-3.357-2.426-8.045-1.674-10.473 1.684-2.427 3.356-1.673 8.044 1.684 10.471z"/><path d="m63.368 120.23c.697.202 1.4.298 2.092.298 3.252 0 6.248-2.133 7.199-5.414 11.764-40.579 37.207-76.639 71.645-101.537 3.356-2.427 4.11-7.115 1.684-10.472-2.429-3.358-7.118-4.11-10.473-1.684-37.134 26.849-64.573 65.743-77.262 109.517-1.154 3.979 1.136 8.139 5.115 9.292z"/></g></svg>