<svg height="512" fill="white" viewBox="0 0 64 64" width="512" xmlns="http://www.w3.org/2000/svg"><g id="024---Woodworking" transform="translate(0 -1)"><path id="Shape" d="m.793 47.047c11.889 11.889 10.744 10.8 10.844 10.845l2.316 2.315c1.053913 1.0515012 2.760087 1.0515012 3.814 0l11.78-11.78c.279.74-.37.007 12.063 11.226 2.224 2.007 6.293 1.311 8.206-.808l8.876-9.838c1.8664502-2.2671436 1.5447538-5.6174398-.719-7.488l-11.312-10.206 12.546-12.546c1.0515012-1.053913 1.0515012-2.760087 0-3.814l-13.16-13.16c-1.0678895-1.01714286-2.7461105-1.01714286-3.814 0l-14.141 14.141-15.103-14.379c-.8052611-.76696258-2.0788546-.73925633-2.85.062l-6.585 6.844c-.37430268.39750847-.57382234.92836042-.554 1.474l.26 5.823c.0451788.8374386.60189415 1.5603732 1.4 1.818l5.306 1.637.24 5.555c.0387397.8440863.6052908 1.5721085 1.414 1.817l4.434 1.381-15.261 15.267c-1.05150118 1.053913-1.05150118 2.760087 0 3.814zm15.56 11.746c-.2769119.2608453-.7090881.2608453-.986 0l-1.651-1.652 7.013-7.456c.2447269-.2604466.3319173-.6316695.2287274-.9738325-.1031899-.3421631-.3810831-.6032836-.729-.685-.3479168-.0817164-.7130005.0283859-.9577274.2888325l-6.971 7.411-2.806-2.806 3.213-3.213c.3789722-.3923789.3735524-1.0160848-.0121814-1.4018186s-1.0094397-.3911536-1.4018186-.0121814l-3.213 3.213-2.85-2.85c2.4621587-2.3313042 5.8854394-3.3542427 9.223-2.756 3.4776076.6204801 7.0563229-.23976 9.872-2.373.2317963.5174537.6700131.9139528 1.208 1.093l3.651 1.135c.031.285 1.029-.822-12.831 13.038zm40.854-11.126-8.876 9.838c-1.21 1.342-3.986 1.923-5.381.663l-11.475-10.355c-.107-.095-.043.162-.463-3.792l11.963-13.27c.12 0-.779-.773 13.658 12.253 1.4338854 1.1360657 1.6895622 3.2131057.574 4.663zm.793-30.807c0 .416.969-.678-12.821 13.112-.772-.7-1.213-1.218-2.18-1.222-.390344.000919-.7721879.1140836-1.1.326l-2.207-2.1 1.628-1.628c.3907414-.3921222.3896221-1.0267585-.0025-1.4175-.3921222-.3907414-1.0267585-.3896221-1.4175.0025l-1.66 1.667-3.6-3.432c2.4439301-2.1794855 5.753566-3.1155627 8.977-2.539 4.1129466.7396001 8.3259927-.597275 11.26-3.573l1.292-1.312c1.802 1.802 1.831 1.737 1.831 2.116zm-14.353-13.653c.2769119-.2608453.7090881-.2608453.986 0l1.63 1.63-2.828 2.829c-.2599566.25107447-.3642126.62287789-.2726972.97250732.0915155.34962944.3645604.6226744.7141899.71418984.3496294.09151544.7214328-.01274058.9725073-.27269716l2.828-2.828 2.829 2.828-2.828 2.828c-.3789722.3923789-.3735524 1.0160848.0121814 1.4018186s1.0094397.3911536 1.4018186.0121814l2.828-2.828 2.831 2.831-1.3 1.323c-2.4713961 2.5060077-6.020147 3.6311757-9.484 3.007-3.8841438-.6943207-7.8699069.4623234-10.779 3.128l-3.644-3.47zm-31.678 15.915c-.0384404-.845305-.6046909-1.5749432-1.414-1.822l-5.3-1.638-.255-5.819 6.61-6.843 28.9 27.509c-11.535 12.784-11.26 12.184-11.448 13.109l-2.933-.909c-.048-1.075-.2-4.357-.25-5.556-.0368573-.844356-.6030316-1.5733254-1.412-1.818l-5.3-1.65c-.256-5.673-.147-5.98-.662-6.651-.2559135-.3283318-.5994684-.5775911-.991-.719l-5.307-1.638zm-9.762 25.525 14.787-14.787c.2 4.4.155 4.061.284 4.448l-5.985 5.985c-.2599566.2510745-.3642126.6228779-.2726972.9725073.0915155.3496295.3645604.6226744.7141899.7141899.3496294.0915154.7214328-.0127406.9725073-.2726972l6.054-6.054 5.12 1.593.175 3.88c-2.4585171 2.3596276-5.8976564 3.4004393-9.252 2.8-3.9820091-.7121291-8.06469922.5199605-10.988 3.316l-1.609-1.61c-.27008376-.2727913-.27008376-.7122087 0-.985z"/><path id="Shape" d="m37.778 14.736c.3904999.3903819 1.0235001.3903819 1.414 0l2.829-2.828c.2525868-.2527654.3511379-.6210837.25853-.966213s-.3623054-.6146361-.7075-.707c-.3451947-.0923638-.7134432.0064476-.96603.259213l-2.828 2.828c-.3903819.3904999-.3903819 1.0235001 0 1.414z"/><path id="Shape" d="m37.882 50.8 6.055 5.462c.4098489.3698799 1.0419005.3376506 1.412-.072l9.56-10.595c.1778144-.1970002.2700304-.4566015.2563383-.7216289-.0136922-.2650275-.1321695-.5137437-.3293383-.6913711l-6.054-5.462c-.1970002-.1778144-.4566015-.2700304-.7216289-.2563383-.2650275.0136922-.5137437.1321695-.6913711.3293383l-9.559 10.592c-.1785593.1969702-.2713343.4569359-.257824.7224508s.1321937.5147208.329824.6925492zm10.3-9.925 4.571 4.125-8.219 9.109-4.569-4.123z"/><path id="Shape" d="m12.385 6.618c-.4017508-.36731603-1.023508-.34581097-1.39892.04838523s-.3665584 1.01626217.01992 1.39961477c1.567 1.492 1.652 1.682 2.166 1.682.4093609.0005125.7776957-.24852621.9297287-.62860854.1520329-.38008233.0570585-.81444473-.2397287-1.09639146z"/><path id="Shape" d="m24.983 20.994c.4089046.0000818.7766632-.2487956.9286024-.6284236.1519393-.379628.0574445-.813514-.2386024-1.0955764l-8.859-8.435c-.402843-.3586407-1.0175194-.3331947-1.3893413.057515-.3718218.3907098-.3668042 1.0058922.0113413 1.390485l8.858 8.435c.185756.1769815.4324309.2757947.689.276z"/></g></svg>