<?xml version="1.0" encoding="UTF-8"?>
<svg width="512" height="512" fill="white" viewBox="0 0 64 64" xmlns="http://www.w3.org/2000/svg">
<g transform="translate(0 -1)">
<path id="Shape" d="m0.793 47.047c11.889 11.889 10.744 10.8 10.844 10.845l2.316 2.315c1.0539 1.0515 2.7601 1.0515 3.814 0l11.78-11.78c0.279 0.74-0.37 7e-3 12.063 11.226 2.224 2.007 6.293 1.311 8.206-0.808l8.876-9.838c1.8665-2.2671 1.5448-5.6174-0.719-7.488l-11.312-10.206 12.546-12.546c1.0515-1.0539 1.0515-2.7601 0-3.814l-13.16-13.16c-1.0679-1.0171-2.7461-1.0171-3.814 0l-14.141 14.141-15.103-14.379c-0.80526-0.76696-2.0789-0.73926-2.85 0.062l-6.585 6.844c-0.3743 0.39751-0.57382 0.92836-0.554 1.474l0.26 5.823c0.045179 0.83744 0.60189 1.5604 1.4 1.818l5.306 1.637 0.24 5.555c0.03874 0.84409 0.60529 1.5721 1.414 1.817l4.434 1.381-15.261 15.267c-1.0515 1.0539-1.0515 2.7601 0 3.814zm15.56 11.746c-0.27691 0.26085-0.70909 0.26085-0.986 0l-1.651-1.652 7.013-7.456c0.24473-0.26045 0.33192-0.63167 0.22873-0.97383-0.10319-0.34216-0.38108-0.60328-0.729-0.685-0.34792-0.081716-0.713 0.028386-0.95773 0.28883l-6.971 7.411-2.806-2.806 3.213-3.213c0.37897-0.39238 0.37355-1.0161-0.012181-1.4018s-1.0094-0.39115-1.4018-0.012181l-3.213 3.213-2.85-2.85c2.4622-2.3313 5.8854-3.3542 9.223-2.756 3.4776 0.62048 7.0563-0.23976 9.872-2.373 0.2318 0.51745 0.67001 0.91395 1.208 1.093l3.651 1.135c0.031 0.285 1.029-0.822-12.831 13.038zm40.854-11.126-8.876 9.838c-1.21 1.342-3.986 1.923-5.381 0.663l-11.475-10.355c-0.107-0.095-0.043 0.162-0.463-3.792l11.963-13.27c0.12 0-0.779-0.773 13.658 12.253 1.4339 1.1361 1.6896 3.2131 0.574 4.663zm0.793-30.807c0 0.416 0.969-0.678-12.821 13.112-0.772-0.7-1.213-1.218-2.18-1.222-0.39034 9.19e-4 -0.77219 0.11408-1.1 0.326l-2.207-2.1 1.628-1.628c0.39074-0.39212 0.38962-1.0268-0.0025-1.4175-0.39212-0.39074-1.0268-0.38962-1.4175 0.0025l-1.66 1.667-3.6-3.432c2.4439-2.1795 5.7536-3.1156 8.977-2.539 4.1129 0.7396 8.326-0.59728 11.26-3.573l1.292-1.312c1.802 1.802 1.831 1.737 1.831 2.116zm-14.353-13.653c0.27691-0.26085 0.70909-0.26085 0.986 0l1.63 1.63-2.828 2.829c-0.25996 0.25107-0.36421 0.62288-0.2727 0.97251 0.091516 0.34963 0.36456 0.62267 0.71419 0.71419 0.34963 0.091515 0.72143-0.012741 0.97251-0.2727l2.828-2.828 2.829 2.828-2.828 2.828c-0.37897 0.39238-0.37355 1.0161 0.012181 1.4018s1.0094 0.39115 1.4018 0.012181l2.828-2.828 2.831 2.831-1.3 1.323c-2.4714 2.506-6.0201 3.6312-9.484 3.007-3.8841-0.69432-7.8699 0.46232-10.779 3.128l-3.644-3.47zm-31.678 15.915c-0.03844-0.8453-0.60469-1.5749-1.414-1.822l-5.3-1.638-0.255-5.819 6.61-6.843 28.9 27.509c-11.535 12.784-11.26 12.184-11.448 13.109l-2.933-0.909c-0.048-1.075-0.2-4.357-0.25-5.556-0.036857-0.84436-0.60303-1.5733-1.412-1.818l-5.3-1.65c-0.256-5.673-0.147-5.98-0.662-6.651-0.25591-0.32833-0.59947-0.57759-0.991-0.719l-5.307-1.638zm-9.762 25.525 14.787-14.787c0.2 4.4 0.155 4.061 0.284 4.448l-5.985 5.985c-0.25996 0.25107-0.36421 0.62288-0.2727 0.97251 0.091516 0.34963 0.36456 0.62267 0.71419 0.71419 0.34963 0.091515 0.72143-0.012741 0.97251-0.2727l6.054-6.054 5.12 1.593 0.175 3.88c-2.4585 2.3596-5.8977 3.4004-9.252 2.8-3.982-0.71213-8.0647 0.51996-10.988 3.316l-1.609-1.61c-0.27008-0.27279-0.27008-0.71221 0-0.985z"/>
<path id="Shape" d="m37.778 14.736c0.3905 0.39038 1.0235 0.39038 1.414 0l2.829-2.828c0.25259-0.25277 0.35114-0.62108 0.25853-0.96621s-0.36231-0.61464-0.7075-0.707c-0.34519-0.092364-0.71344 0.0064476-0.96603 0.25921l-2.828 2.828c-0.39038 0.3905-0.39038 1.0235 0 1.414z"/>
<path id="Shape" d="m37.882 50.8 6.055 5.462c0.40985 0.36988 1.0419 0.33765 1.412-0.072l9.56-10.595c0.17781-0.197 0.27003-0.4566 0.25634-0.72163-0.013692-0.26503-0.13217-0.51374-0.32934-0.69137l-6.054-5.462c-0.197-0.17781-0.4566-0.27003-0.72163-0.25634-0.26503 0.013692-0.51374 0.13217-0.69137 0.32934l-9.559 10.592c-0.17856 0.19697-0.27133 0.45694-0.25782 0.72245s0.13219 0.51472 0.32982 0.69255zm10.3-9.925 4.571 4.125-8.219 9.109-4.569-4.123z"/>
<path id="a" d="m12.385 6.618c-0.40175-0.36732-1.0235-0.34581-1.3989 0.048385s-0.36656 1.0163 0.01992 1.3996c1.567 1.492 1.652 1.682 2.166 1.682 0.40936 5.125e-4 0.7777-0.24853 0.92973-0.62861 0.15203-0.38008 0.057058-0.81444-0.23973-1.0964z"/>
<path d="m24.983 20.994c0.4089 8.18e-5 0.77666-0.2488 0.9286-0.62842 0.15194-0.37963 0.057444-0.81351-0.2386-1.0956l-8.859-8.435c-0.40284-0.35864-1.0175-0.33319-1.3893 0.057515-0.37182 0.39071-0.3668 1.0059 0.011341 1.3905l8.858 8.435c0.18576 0.17698 0.43243 0.27579 0.689 0.276z"/>
</g>
</svg>
